<svg width="107" height="86" viewBox="0 0 107 86" fill="none" xmlns="http://www.w3.org/2000/svg">
<g clip-path="url(#clip0_413_159)">
<path d="M22.2242 0C16.119 0 11.6011 5.34373 11.8034 11.1389C11.9978 16.7062 11.7453 23.9174 9.9301 29.7978C8.10943 35.6954 5.02984 39.4312 0 39.911V45.3262C5.02984 45.806 8.10943 49.5418 9.9301 55.4398C11.7453 61.3202 11.9978 68.5306 11.8034 74.0983C11.6011 79.8926 16.119 85.2372 22.2251 85.2372H84.7837C90.8894 85.2372 95.406 79.8935 95.2037 74.0983C95.0097 68.531 95.2618 61.3202 97.077 55.4398C98.8989 49.5423 101.97 45.8056 107 45.3262V39.911C101.97 39.4312 98.8989 35.6954 97.0774 29.7978C95.2618 23.9183 95.0097 16.7066 95.2037 11.1389C95.406 5.34457 90.8894 0 84.7837 0H22.2234H22.2242ZM72.5427 52.4689C72.5427 60.4487 66.5908 65.288 56.7133 65.288H39.8985C39.4175 65.2879 38.9564 65.0967 38.6163 64.7566C38.2763 64.4165 38.0853 63.9553 38.0853 63.4744V21.7628C38.0853 21.5246 38.1321 21.2887 38.2232 21.0686C38.3144 20.8486 38.4479 20.6486 38.6163 20.4801C38.7848 20.3117 38.9847 20.1781 39.2048 20.0869C39.4248 19.9957 39.6607 19.9488 39.8989 19.9488H56.6172C64.8533 19.9488 70.2585 24.4106 70.2585 31.2603C70.2585 36.0682 66.6221 40.3724 61.9898 41.126V41.3772C68.2965 42.069 72.5427 46.4363 72.5427 52.4689ZM54.8793 25.698H45.2923V39.2402H53.3675C59.6094 39.2402 63.0518 36.7265 63.0518 32.2333C63.0518 28.0231 60.0914 25.698 54.8793 25.698ZM45.2923 44.6136V59.5371H55.2325C61.7311 59.5371 65.1743 56.9294 65.1743 52.0283C65.1743 47.1264 61.6353 44.6127 54.8145 44.6127H45.2923V44.6136Z" fill="url(#paint0_linear_413_159)"/>
</g>
<defs>
<linearGradient id="paint0_linear_413_159" x1="3.63899e-08" y1="43" x2="134" y2="43" gradientUnits="userSpaceOnUse">
<stop stop-color="#F7ACE6"/>
<stop offset="1" stop-color="white"/>
</linearGradient>
<clipPath id="clip0_413_159">
<rect width="107" height="85.2656" fill="white"/>
</clipPath>
</defs>
</svg>
