<svg width="107" height="151" viewBox="0 0 107 151" fill="none" xmlns="http://www.w3.org/2000/svg">
<g clip-path="url(#clip0_413_137)">
<path d="M53.4348 150.505L9.89002 138.417L0.186035 29.5779H106.814L97.1 138.4L53.4348 150.505Z" fill="#264DE4"/>
<path d="M88.7837 131.471L97.0845 38.4771H53.5V141.253L88.7837 131.471Z" fill="#2965F1"/>
<path d="M22.432 78.8438L23.6282 92.1925H53.5V78.8438H22.432ZM20.0278 51.8259L21.2412 65.1746H53.5V51.8259H20.0278ZM53.5 113.512L53.4415 113.527L38.5752 109.513L37.6247 98.8671H24.2247L26.0946 119.827L53.4386 127.417L53.5 127.4V113.512Z" fill="#EBEBEB"/>
<path d="M84.4828 78.8438L86.8924 51.8259H53.454V65.1746H72.2635L71.0488 78.8438H53.454V92.1925H69.8915L68.3417 109.505L53.4536 113.523V127.411L80.8193 119.827L81.0199 117.571L84.1572 82.4283L84.4828 78.8438Z" fill="white"/>
</g>
<defs>
<clipPath id="clip0_413_137">
<rect width="107" height="150.887" fill="white"/>
</clipPath>
</defs>
</svg>
