<svg width="107" height="107" viewBox="0 0 107 107" fill="none" xmlns="http://www.w3.org/2000/svg">
<g clip-path="url(#clip0_413_132)">
<path d="M104.98 48.7319L58.261 2.01967C57.6213 1.37968 56.8619 0.872003 56.0259 0.52563C55.19 0.179256 54.294 0.000976563 53.3892 0.000976562C52.4843 0.000976563 51.5883 0.179256 50.7524 0.52563C49.9165 0.872003 49.157 1.37968 48.5173 2.01967L38.8204 11.7165L51.1255 24.0215C52.5767 23.5261 54.138 23.4485 55.6311 23.7978C57.1243 24.1471 58.4892 24.9092 59.57 25.997C60.6508 27.0848 61.4041 28.4545 61.7438 29.9499C62.0834 31.4453 61.9959 33.006 61.4911 34.454L73.348 46.3177C75.1022 45.7 77.0145 45.6981 78.7699 46.3124C80.5253 46.9266 82.0192 48.1203 83.0057 49.6969C83.9921 51.2735 84.4123 53.139 84.197 54.9863C83.9817 56.8335 83.1437 58.5524 81.8211 59.8599C80.4821 61.207 78.717 62.0475 76.8272 62.2378C74.9374 62.428 73.0401 61.9563 71.4595 60.9031C69.8789 59.8499 68.713 58.2805 68.161 56.4632C67.6089 54.6458 67.705 52.6931 68.4327 50.9387L57.3783 39.8776V68.9883C59.0585 69.82 60.403 71.2025 61.1876 72.9054C61.9721 74.6082 62.1494 76.5285 61.6897 78.3461C61.2301 80.1638 60.1614 81.769 58.6618 82.8943C57.1621 84.0195 55.3221 84.5968 53.4484 84.5299C51.5747 84.463 49.7806 83.7559 48.365 82.5265C46.9495 81.2972 45.998 79.6198 45.6692 77.774C45.3404 75.9282 45.6542 74.0254 46.5582 72.3829C47.4623 70.7404 48.9019 69.4573 50.6373 68.7475V39.3694C49.6361 38.9591 48.726 38.3547 47.9595 37.5911C47.1929 36.8275 46.5851 35.9197 46.1711 34.92C45.7571 33.9204 45.545 32.8487 45.5471 31.7667C45.5492 30.6847 45.7655 29.6139 46.1834 28.6159L34.059 16.4847L2.02583 48.5179C1.38585 49.1575 0.878168 49.917 0.531794 50.7529C0.185421 51.5889 0.00714111 52.4849 0.00714111 53.3897C0.00714111 54.2945 0.185421 55.1905 0.531794 56.0265C0.878168 56.8624 1.38585 57.6219 2.02583 58.2615L48.7447 104.98C49.3844 105.62 50.1439 106.128 50.9798 106.474C51.8157 106.821 52.7117 106.999 53.6165 106.999C54.5214 106.999 55.4174 106.821 56.2533 106.474C57.0892 106.128 57.8487 105.62 58.4884 104.98L104.987 58.4822C106.277 57.1895 107.002 55.4373 107.002 53.6104C107.002 51.7835 106.277 50.0313 104.987 48.7385" fill="#FF603E"/>
</g>
<defs>
<clipPath id="clip0_413_132">
<rect width="107" height="107" fill="white"/>
</clipPath>
</defs>
</svg>
