<svg width="107" height="107" viewBox="0 0 107 107" fill="none" xmlns="http://www.w3.org/2000/svg">
<path fill-rule="evenodd" clip-rule="evenodd" d="M53.5 0C23.9412 0 0 23.9412 0 53.5C0 77.1737 15.3144 97.1694 36.5806 104.258C39.2556 104.726 40.2588 103.121 40.2588 101.717C40.2588 100.446 40.1919 96.2331 40.1919 91.7525C26.75 94.2269 23.2725 88.4756 22.2025 85.4662C21.6006 83.9281 18.9925 79.18 16.7188 77.9094C14.8463 76.9062 12.1713 74.4319 16.6519 74.365C20.865 74.2981 23.8744 78.2437 24.8775 79.8487C29.6925 87.9406 37.3831 85.6669 40.4594 84.2625C40.9275 80.785 42.3319 78.4444 43.87 77.1069C31.9663 75.7694 19.5275 71.155 19.5275 50.6912C19.5275 44.8731 21.6006 40.0581 25.0113 36.3131C24.4763 34.9756 22.6038 29.4919 25.5463 22.1356C25.5463 22.1356 30.0269 20.7312 40.2588 27.6194C44.5387 26.4156 49.0863 25.8137 53.6338 25.8137C58.1813 25.8137 62.7288 26.4156 67.0088 27.6194C77.2406 20.6644 81.7213 22.1356 81.7213 22.1356C84.6637 29.4919 82.7913 34.9756 82.2563 36.3131C85.6669 40.0581 87.74 44.8062 87.74 50.6912C87.74 71.2219 75.2344 75.7694 63.3306 77.1069C65.27 78.7787 66.9419 81.9887 66.9419 87.0044C66.9419 94.16 66.875 99.9112 66.875 101.717C66.875 103.121 67.8781 104.793 70.5531 104.258C81.1737 100.672 90.4024 93.8465 96.9405 84.7412C103.479 75.6358 106.997 64.7095 107 53.5C107 23.9412 83.0588 0 53.5 0Z" fill="white"/>
</svg>
