<svg width="107" height="151" viewBox="0 0 107 151" fill="none" xmlns="http://www.w3.org/2000/svg">
<g clip-path="url(#clip0_413_143)">
<path d="M106.814 29.5779L97.1 138.4L53.4348 150.505L9.88995 138.417L0.185974 29.5779H106.814Z" fill="#E44D26"/>
<path d="M53.5 141.253L88.7837 131.471L97.0845 38.4771H53.5V141.253Z" fill="#F16529"/>
<path d="M34.6162 65.1746H53.5V51.8259H20.0278L20.3472 55.4071L23.6282 92.1925H53.5V78.8438H35.8362L34.6162 65.1746ZM37.6247 98.8671H24.2247L26.0946 119.827L53.4386 127.417L53.5 127.4V113.512L53.4415 113.527L38.5752 109.513L37.6247 98.8671Z" fill="#EBEBEB"/>
<path d="M53.454 92.1925H69.8915L68.3417 109.505L53.4536 113.523V127.411L80.8193 119.827L81.0199 117.571L84.1572 82.4283L84.4828 78.8438H53.454V92.1925ZM53.454 65.142V65.1746H85.6974L85.9649 62.1744L86.5735 55.4071L86.8924 51.8259H53.454V65.1424V65.142Z" fill="white"/>
</g>
<defs>
<clipPath id="clip0_413_143">
<rect width="107" height="150.887" fill="white"/>
</clipPath>
</defs>
</svg>
