<svg width="107" height="107" viewBox="0 0 107 107" fill="none" xmlns="http://www.w3.org/2000/svg">
<g clip-path="url(#clip0_413_134)">
<path d="M0 0H107V107H0V0Z" fill="#F7DF1E"/>
<path d="M28.1343 89.4169L36.3223 84.4615C37.9023 87.2623 39.3392 89.6322 42.7862 89.6322C46.0903 89.6322 48.1738 88.3398 48.1738 83.3125V49.1235H58.2289V83.4546C58.2289 93.8691 52.1241 98.6097 43.2172 98.6097C35.1733 98.6097 30.5042 94.4438 28.1339 89.4161L28.1343 89.4169ZM63.6905 88.3394L71.8777 83.5992C74.0331 87.1189 76.8344 89.7045 81.7898 89.7045C85.9566 89.7045 88.6132 87.6213 88.6132 84.7482C88.6132 81.3008 85.8838 80.0795 81.287 78.0691L78.7738 76.9907C71.5191 73.9032 66.707 70.0244 66.707 61.8364C66.707 54.2946 72.4528 48.5483 81.4312 48.5483C87.8236 48.5483 92.4204 50.7753 95.7241 56.593L87.8947 61.6211C86.1705 58.5328 84.3039 57.3119 81.4308 57.3119C78.4858 57.3119 76.6183 59.1794 76.6183 61.6211C76.6183 64.6376 78.4858 65.8594 82.795 67.7268L85.3087 68.8039C93.8561 72.4674 98.6682 76.202 98.6682 84.6048C98.6682 93.6555 91.5577 98.611 82.0051 98.611C72.6681 98.611 66.6347 94.1579 63.6901 88.3398" fill="black"/>
</g>
<defs>
<clipPath id="clip0_413_134">
<rect width="107" height="107" fill="white"/>
</clipPath>
</defs>
</svg>
