<svg width="107" height="90" viewBox="0 0 107 90" fill="none" xmlns="http://www.w3.org/2000/svg">
<path d="M53.5 0C23.4999 0 0 19.7654 0 45C0 70.2346 23.4999 90 53.5 90C83.5001 90 107 70.2346 107 45C107 19.7654 83.5001 0 53.5 0ZM47.9449 13.8462H53.7853L51.9307 27.6923H57.1469C60.455 27.6923 62.6753 28.4123 63.9414 30.2054C65.1764 31.9777 65.5509 34.8854 65.056 38.8454L62.7377 55.3846H56.7992L58.9347 40.0915C59.1933 37.9939 59.0908 36.5331 58.636 35.7646C58.1857 34.9962 57.1915 34.6154 55.7024 34.6154H51.0256L48.2035 55.3846H42.3542L47.9449 13.8462ZM22.2917 27.6923H34.1776C39.8441 27.6923 43.277 33.5908 41.9351 42.39C40.3747 52.6154 36.2017 55.3846 28.5155 55.3846H24.8418L23.6782 65.7692H17.7709L22.2917 27.6923ZM69.1042 27.6923H80.9901C86.6566 27.6923 90.0895 33.5908 88.7476 42.39C87.1872 52.6154 83.0097 55.3846 75.328 55.3846H71.6543L70.4907 65.7692H64.5834L69.1042 27.6923ZM27.3519 34.6154L25.6711 48.4615H29.483C32.7821 48.4615 35.8495 47.88 36.3622 40.2369C36.5539 37.2808 35.7603 34.6154 31.9484 34.6154H27.3519ZM74.1644 34.6154L72.4836 48.4615H76.2955C79.5946 48.4615 82.662 47.88 83.1747 40.2369C83.3664 37.2808 82.5773 34.6154 78.7609 34.6154H74.1644Z" fill="white"/>
</svg>
