<svg width="90" height="89" viewBox="0 0 90 89" fill="none" xmlns="http://www.w3.org/2000/svg">
<path d="M66.9638 64.6126V24.1309L40.2138 44.3717M1.06962 32.1559C0.422549 31.464 0.0552143 30.5567 0.0387419 29.6095C0.0222695 28.6623 0.357832 27.7428 0.980456 27.0288L6.33046 22.0801C7.22212 21.2776 9.4067 20.9209 11.0117 22.0801L26.2592 33.7163L61.6138 1.3934C63.0405 -0.0332697 65.4925 -0.612853 68.3013 0.858398L86.1346 9.37381C87.7396 10.3101 89.2555 11.7813 89.2555 14.5009V74.6884C89.2555 76.4717 87.9625 78.3888 86.5805 79.1467L66.9638 88.5092C65.5371 89.0888 62.8621 88.5538 61.9259 87.6176L26.17 55.0717L11.0117 66.6634C9.31754 67.8226 7.22212 67.5105 6.33046 66.6634L0.980456 61.7592C-0.44621 60.288 -0.267877 57.8805 1.20337 56.4092L14.5784 44.3717" fill="#226DFF"/>
</svg>
