<svg width="100" height="76" viewBox="0 0 100 76" fill="none" xmlns="http://www.w3.org/2000/svg">
<g clip-path="url(#clip0_420_257)">
<path d="M22.7273 75.0194V36.3827L10.7449 25.4206L0 19.3374V68.2011C0 71.9737 3.05664 75.0194 6.81836 75.0194H22.7273Z" fill="#4285F4"/>
<path d="M77.2727 75.0195H93.1817C96.9547 75.0195 100 71.9625 100 68.2012V19.3379L87.8297 26.3055L77.2727 36.3828V75.0195Z" fill="#34A853"/>
<path d="M22.7274 36.3827L21.0969 21.2862L22.7274 6.8374L50 27.2921L77.2727 6.8374L79.0965 20.5062L77.2727 36.3827L50 56.8374L22.7274 36.3827Z" fill="#EA4335"/>
<path d="M77.2727 6.83738V36.3827L100 19.3374V10.2464C100 1.81472 90.3751 -2.99192 83.6368 2.06472L77.2727 6.83738Z" fill="#FBBC04"/>
<path d="M0 19.3376L10.4527 27.1774L22.7273 36.3829V6.83756L16.3633 2.0649C9.61328 -2.99213 0 1.8149 0 10.2462V19.3372V19.3376Z" fill="#C5221F"/>
</g>
<defs>
<clipPath id="clip0_420_257">
<rect width="100" height="75.3906" fill="white"/>
</clipPath>
</defs>
</svg>
