<svg width="100" height="101" viewBox="0 0 100 101" fill="none" xmlns="http://www.w3.org/2000/svg">
<g clip-path="url(#clip0_420_251)">
<path d="M2.13403 49.7874C2.13169 58.255 4.34419 66.523 8.55122 73.8105L1.73169 98.7097L27.2129 92.0285C34.2607 95.8652 42.1572 97.8756 50.1817 97.8761H50.2028C76.693 97.8761 98.2567 76.3203 98.268 49.8253C98.2731 36.9867 93.2778 24.914 84.202 15.8312C75.1278 6.74917 63.0594 1.74487 50.2008 1.73901C23.7075 1.73901 2.14536 23.2937 2.13442 49.7874" fill="url(#paint0_linear_420_251)"/>
<path d="M0.417969 49.7719C0.415234 58.5441 2.70703 67.1078 7.06406 74.6562L0 100.448L26.3949 93.5273C33.6676 97.4926 41.8559 99.5832 50.1879 99.5863H50.2094C77.65 99.5863 99.9883 77.2551 100 49.8117C100.005 36.5117 94.8297 24.0051 85.4297 14.5969C76.0285 5.18984 63.5285 0.00546875 50.2094 0C22.7641 0 0.428906 22.3281 0.417969 49.7719ZM16.1367 73.3563L15.1512 71.7918C11.0082 65.2043 8.82148 57.5918 8.82461 49.775C8.83359 26.9645 27.3977 8.40625 50.225 8.40625C61.2797 8.41094 71.6687 12.7203 79.4828 20.5391C87.2965 28.3586 91.5961 38.7531 91.5934 49.8086C91.5832 72.6191 73.0187 91.1797 50.2094 91.1797H50.193C42.766 91.1758 35.482 89.1813 29.1297 85.4121L27.618 84.5156L11.9547 88.6223L16.1367 73.3559V73.3563Z" fill="url(#paint1_linear_420_251)"/>
<path d="M37.7649 28.964C36.8329 26.8925 35.852 26.8507 34.9657 26.8143C34.2399 26.7831 33.4102 26.7854 32.5813 26.7854C31.7516 26.7854 30.4036 27.0976 29.2641 28.3417C28.1235 29.587 24.9094 32.5964 24.9094 38.7171C24.9094 44.8382 29.3676 50.7534 29.9891 51.5843C30.6114 52.4136 38.5957 65.3761 51.2411 70.3628C61.7504 74.5069 63.8891 73.6827 66.17 73.4749C68.4512 73.2679 73.5309 70.4663 74.5672 67.5612C75.6043 64.6565 75.6043 62.1667 75.2934 61.6464C74.9825 61.128 74.1528 60.8167 72.9086 60.1948C71.6641 59.5725 65.5477 56.5628 64.4075 56.1476C63.2668 55.7327 62.4375 55.5257 61.6079 56.7714C60.7782 58.0151 58.3958 60.8167 57.6696 61.6464C56.9442 62.478 56.218 62.5815 54.9743 61.9593C53.7293 61.335 49.7227 60.0229 44.9692 55.785C41.2708 52.4874 38.7739 48.4151 38.0481 47.1694C37.3223 45.9257 37.9704 45.2515 38.5942 44.6315C39.1532 44.0741 39.8387 43.1788 40.4614 42.4526C41.0817 41.7261 41.2887 41.2077 41.7036 40.378C42.1188 39.5475 41.911 38.821 41.6004 38.1987C41.2887 37.5765 38.8711 31.4237 37.7649 28.964Z" fill="white"/>
</g>
<defs>
<linearGradient id="paint0_linear_420_251" x1="4828.55" y1="9698.81" x2="4828.55" y2="1.73901" gradientUnits="userSpaceOnUse">
<stop stop-color="#1FAF38"/>
<stop offset="1" stop-color="#60D669"/>
</linearGradient>
<linearGradient id="paint1_linear_420_251" x1="5000" y1="10044.8" x2="5000" y2="0" gradientUnits="userSpaceOnUse">
<stop stop-color="#F9F9F9"/>
<stop offset="1" stop-color="white"/>
</linearGradient>
<clipPath id="clip0_420_251">
<rect width="100" height="100.781" fill="white"/>
</clipPath>
</defs>
</svg>
